<svg width="12" height="12" viewBox="0 0 12 12" fill="none" xmlns="http://www.w3.org/2000/svg">
<path d="M5.84792 0C6.1709 1.11015e-07 6.43272 0.261822 6.43272 0.584795C6.43272 0.907769 6.1709 1.16959 5.84792 1.16959C4.92263 1.16959 4.01825 1.4442 3.2489 1.95826C2.47958 2.47231 1.88002 3.20278 1.52592 4.05759C1.17184 4.9124 1.07874 5.85308 1.25922 6.76055C1.43974 7.66807 1.88532 8.50199 2.5396 9.15627C3.19388 9.81055 4.02781 10.2561 4.93532 10.4367C5.84279 10.6171 6.78347 10.524 7.63829 10.17C8.49309 9.81586 9.22357 9.21629 9.73761 8.44698C10.2517 7.67763 10.5263 6.77325 10.5263 5.84795C10.5263 5.52498 10.7881 5.26316 11.1111 5.26316C11.4341 5.26316 11.6959 5.52498 11.6959 5.84795C11.6959 7.00457 11.3528 8.13519 10.7102 9.09688C10.0676 10.0585 9.15455 10.8084 8.08602 11.251C7.01745 11.6936 5.84128 11.809 4.70689 11.5834C3.57256 11.3577 2.53047 10.801 1.71267 9.98321C0.894859 9.1654 0.338142 8.12331 0.112475 6.98899C-0.113169 5.8546 0.00223075 4.67843 0.444849 3.60985C0.887462 2.54133 1.63735 1.62827 2.599 0.9857C3.56069 0.34312 4.69131 4.13943e-07 5.84792 0ZM4.8805 2.4751C5.19094 2.38608 5.51502 2.56558 5.60407 2.87601C5.69309 3.18647 5.51363 3.51055 5.20316 3.59958L5.06039 3.64526C4.73191 3.7627 4.43312 3.9523 4.18663 4.20093C3.90491 4.48512 3.70081 4.83702 3.59383 5.22261C3.48688 5.60829 3.48043 6.01543 3.57556 6.40419C3.67068 6.79278 3.86415 7.15039 4.13694 7.44301C4.40986 7.73568 4.75351 7.95375 5.13463 8.07577C5.51581 8.19779 5.92231 8.2201 6.3145 8.14031C6.70663 8.06049 7.07186 7.88126 7.37502 7.62004C7.67816 7.35881 7.90917 7.02409 8.04605 6.64805C8.15648 6.34462 8.49187 6.18823 8.79531 6.29854C9.09878 6.40899 9.25521 6.74434 9.14482 7.04781C8.93953 7.61184 8.59323 8.11395 8.13856 8.5058C7.68376 8.89769 7.1358 9.16679 6.54751 9.28648C5.95925 9.40616 5.35001 9.37296 4.77827 9.18997C4.20653 9.00695 3.69145 8.67985 3.28202 8.24082C2.87258 7.80175 2.58236 7.26489 2.43966 6.68174C2.29702 6.09867 2.30609 5.48867 2.4665 4.91022C2.62694 4.33172 2.93362 3.80435 3.35626 3.37799C3.77885 2.9517 4.30351 2.6406 4.8805 2.4751ZM8.32873 0.472291C8.47771 0.323314 8.69564 0.265855 8.89868 0.322094C9.10171 0.37834 9.25877 0.539744 9.30987 0.744129L9.63824 2.05763L10.9517 2.38601C11.1561 2.43711 11.3175 2.59417 11.3738 2.79719C11.43 3.00024 11.3726 3.21816 11.2236 3.36714L9.36298 5.22775C9.23743 5.3533 9.06144 5.41516 8.88498 5.39565L7.30249 5.21976L6.26139 6.26142C6.03302 6.4898 5.66283 6.4898 5.43445 6.26142C5.20608 6.03305 5.20608 5.66286 5.43445 5.43448L6.47555 4.39282L6.30023 2.81147C6.28061 2.63491 6.34251 2.45852 6.46813 2.3329L8.32873 0.472291ZM7.4938 2.96053L7.61773 4.07758L8.73478 4.2015L9.66565 3.27006L9.01404 3.1073C8.80461 3.05489 8.64098 2.89126 8.58858 2.68183L8.42525 2.02965L7.4938 2.96053Z" fill="#90909B"/>
</svg>
