<svg width="11" height="15" viewBox="0 0 11 15" fill="none" xmlns="http://www.w3.org/2000/svg">
<path fill-rule="evenodd" clip-rule="evenodd" d="M6.60428 9.18546C6.71395 9.29509 6.86267 9.35668 7.01773 9.35668C7.1728 9.35668 7.32152 9.29509 7.43118 9.18546L10.7394 5.87727C10.7952 5.82333 10.8398 5.7588 10.8704 5.68745C10.9011 5.6161 10.9172 5.53937 10.9179 5.46172C10.9186 5.38407 10.9038 5.30706 10.8744 5.2352C10.8449 5.16333 10.8015 5.09803 10.7466 5.04312C10.6917 4.98822 10.6264 4.94479 10.5545 4.91539C10.4827 4.88598 10.4057 4.87119 10.328 4.87186C10.2504 4.87254 10.1736 4.88867 10.1023 4.91932C10.0309 4.94997 9.96641 4.99452 9.91247 5.05037L7.01773 7.94511L4.12299 5.05037C4.0127 4.94385 3.86498 4.8849 3.71165 4.88624C3.55832 4.88757 3.41164 4.94907 3.30322 5.0575C3.19479 5.16592 3.13329 5.3126 3.13196 5.46593C3.13062 5.61926 3.18957 5.76698 3.29609 5.87727L6.60428 9.18546Z" fill="black"/>
</svg>
