<svg width="12" height="9" viewBox="0 0 12 9" fill="none" xmlns="http://www.w3.org/2000/svg">
<path fill-rule="evenodd" clip-rule="evenodd" d="M4.25307 4.2531C5.42801 4.2531 6.37959 3.30146 6.37959 2.12654C6.37959 0.951626 5.42801 0 4.25307 0C3.07816 0 2.12654 0.951626 2.12654 2.12654C2.12654 3.30146 3.07816 4.2531 4.25307 4.2531ZM4.25307 1.06327C4.83789 1.06327 5.31632 1.54174 5.31632 2.12654C5.31632 2.71133 4.83789 3.18983 4.25307 3.18983C3.66827 3.18983 3.18981 2.71133 3.18981 2.12654C3.18981 1.54174 3.66827 1.06327 4.25307 1.06327ZM9.56936 2.12654C9.56936 3.30146 8.61772 4.2531 7.44281 4.2531C7.19298 4.2531 6.95906 4.19988 6.73579 4.1255C7.17702 3.57789 7.44281 2.88146 7.44281 2.12654C7.44281 1.37161 7.17702 0.675176 6.73579 0.127591C6.95906 0.0531639 7.19298 0 7.44281 0C8.61772 0 9.56936 0.951626 9.56936 2.12654ZM9.56936 6.91123C9.56936 6.01807 9.059 5.34825 8.33064 4.8538C9.79795 5.06649 11.6959 5.75228 11.6959 6.91123V7.92135C11.6959 8.24433 11.4341 8.50614 11.1111 8.50614H10.1542C9.83117 8.50614 9.56936 8.24433 9.56936 7.92135V6.91123ZM0 6.91123C0 5.49708 2.83361 4.78468 4.25307 4.78468C5.67251 4.78468 8.50614 5.49708 8.50614 6.91123V7.92135C8.50614 8.24433 8.24433 8.50614 7.92134 8.50614H0.584795C0.261825 8.50614 0 8.24433 0 7.92135V6.91123ZM1.06327 6.91655V7.44287H7.44286V6.91123C7.33655 6.5338 5.68848 5.84795 4.25307 5.84795C2.81766 5.84795 1.1696 6.5338 1.06327 6.91655Z" fill="#90909B"/>
</svg>
