<svg width="10" height="12" viewBox="0 0 10 12" fill="none" xmlns="http://www.w3.org/2000/svg">
<path d="M7.25933 6.29838C7.44923 6.23053 7.57673 6.04922 7.57673 5.84762C7.57673 5.64603 7.44923 5.46471 7.26011 5.39686L6.39057 5.08336C5.96753 4.93159 5.58332 4.68807 5.26552 4.37027C4.94772 4.05247 4.7042 3.66827 4.55244 3.24523L4.23893 2.37568C4.20538 2.28317 4.14424 2.2032 4.06376 2.14657C3.98328 2.08994 3.88736 2.0594 3.78895 2.05906C3.58775 2.05906 3.40643 2.18618 3.3378 2.37568L3.02469 3.24523C2.87295 3.66835 2.6294 4.05262 2.31152 4.37043C1.99364 4.68824 1.60932 4.93171 1.18617 5.08336L0.317403 5.39686C0.127507 5.4651 0 5.64603 0 5.84762C0 6.04922 0.127507 6.23014 0.316623 6.29838L1.18617 6.61188C1.60923 6.7636 1.99346 7.0071 2.31127 7.32491C2.62908 7.64272 2.87258 8.02695 3.0243 8.45002L3.3378 9.31995C3.40604 9.50907 3.58736 9.63618 3.78856 9.63618C3.98977 9.63618 4.17108 9.50868 4.23893 9.31956L4.55244 8.45002C4.7042 8.02698 4.94772 7.64277 5.26552 7.32497C5.58332 7.00717 5.96753 6.76365 6.39057 6.61188L7.25933 6.29838ZM5.92109 2.51879L6.36132 2.67749C6.54888 2.74479 6.71921 2.85276 6.86011 2.99365C7.00101 3.13455 7.10898 3.30489 7.17628 3.49244L7.33459 3.93229C7.39659 4.10463 7.56114 4.22044 7.74401 4.22044C7.92689 4.22044 8.09183 4.10463 8.15344 3.93267L8.31214 3.49244C8.37936 3.30485 8.48731 3.13448 8.62822 2.99357C8.76913 2.85266 8.9395 2.74471 9.1271 2.67749L9.56772 2.51879C9.7389 2.45679 9.8547 2.29263 9.85509 2.11053C9.85548 1.92843 9.74085 1.76349 9.56772 1.70032L9.1271 1.54162C8.93957 1.47428 8.76926 1.36629 8.62836 1.2254C8.48747 1.08451 8.37949 0.914197 8.31214 0.726669L8.15344 0.286438C8.12285 0.202481 8.06717 0.129964 7.99397 0.078724C7.92076 0.0274839 7.83357 0 7.74421 0C7.65485 0 7.56766 0.0274839 7.49445 0.078724C7.42124 0.129964 7.36557 0.202481 7.33498 0.286438L7.17628 0.726669C7.10898 0.914223 7.00101 1.08456 6.86011 1.22546C6.71921 1.36636 6.54888 1.47433 6.36132 1.54162L5.91992 1.70071C5.74835 1.7631 5.63293 1.92804 5.63332 2.11053C5.63371 2.29302 5.74952 2.45718 5.92109 2.51879ZM9.56733 9.17646L9.1271 9.01775C8.93957 8.95041 8.76926 8.84242 8.62836 8.70153C8.48747 8.56064 8.37949 8.39033 8.31214 8.2028L8.15344 7.76257C8.12275 7.67865 8.06702 7.60619 7.99379 7.55499C7.92056 7.5038 7.83337 7.47634 7.74401 7.47634C7.65466 7.47634 7.56747 7.5038 7.49424 7.55499C7.421 7.60619 7.36527 7.67865 7.33459 7.76257L7.17589 8.2028C7.10866 8.39039 7.00072 8.56077 6.85981 8.70168C6.7189 8.84259 6.54853 8.95053 6.36093 9.01775L5.92109 9.17607C5.74913 9.23767 5.63332 9.40222 5.63293 9.58471C5.63254 9.7672 5.74757 9.93214 5.9207 9.99492L6.36093 10.1536C6.54855 10.2208 6.71895 10.3287 6.85987 10.4696C7.00078 10.6106 7.10871 10.781 7.17589 10.9686L7.3342 11.4084C7.36469 11.4926 7.42037 11.5654 7.49367 11.6168C7.56697 11.6682 7.65433 11.6959 7.74388 11.6959C7.83342 11.6959 7.92081 11.6684 7.99416 11.617C8.06751 11.5657 8.12326 11.493 8.15383 11.4088L8.31253 10.9686C8.37988 10.781 8.48786 10.6107 8.62875 10.4698C8.76965 10.3289 8.93996 10.221 9.12749 10.1536L9.56967 9.99453C9.74085 9.93175 9.85588 9.7672 9.85549 9.58471C9.8551 9.40222 9.7389 9.23845 9.56733 9.17646Z" fill="#90909B"/>
</svg>
