<svg width="23" height="23" viewBox="0 0 23 23" fill="none" xmlns="http://www.w3.org/2000/svg">
<path fill-rule="evenodd" clip-rule="evenodd" d="M7.71972 11.8129C8.48337 11.8129 9.13145 12.3013 9.37245 12.9825H15.9069C16.2298 12.9825 16.4916 13.2443 16.4916 13.5673C16.4916 13.8902 16.2298 14.152 15.9069 14.152H9.37245C9.13145 14.8332 8.48337 15.3216 7.71972 15.3216C6.7508 15.3216 5.96533 14.5362 5.96533 13.5673C5.96533 12.5983 6.7508 11.8129 7.71972 11.8129ZM7.71972 12.9825C7.39675 12.9825 7.13492 13.2443 7.13492 13.5673C7.13492 13.8902 7.39675 14.152 7.71972 14.152C8.04269 14.152 8.30451 13.8902 8.30451 13.5673C8.30451 13.2443 8.04269 12.9825 7.71972 12.9825Z" fill="black"/>
<path fill-rule="evenodd" clip-rule="evenodd" d="M14.7373 7.13449C15.7062 7.13449 16.4916 7.91996 16.4916 8.88888C16.4916 9.8578 15.7062 10.6433 14.7373 10.6433C13.9736 10.6433 13.3255 10.1548 13.0845 9.47367H6.55013C6.22716 9.47367 5.96533 9.21185 5.96533 8.88888C5.96533 8.56591 6.22716 8.30408 6.55013 8.30408H13.0845C13.3255 7.62298 13.9736 7.13449 14.7373 7.13449ZM14.7373 8.30408C14.4143 8.30408 14.1525 8.56591 14.1525 8.88888C14.1525 9.21185 14.4143 9.47367 14.7373 9.47367C15.0602 9.47367 15.3221 9.21185 15.3221 8.88888C15.3221 8.56591 15.0602 8.30408 14.7373 8.30408Z" fill="black"/>
</svg>
