<svg width="11" height="11" viewBox="0 0 11 11" fill="none" xmlns="http://www.w3.org/2000/svg">
<rect width="11" height="11" fill="#1E1E1E"/>
<g clip-path="url(#clip0_0_1)">
<rect width="1200" height="665.263" transform="translate(-24.9126 -100.702)" fill="#EFF0EB"/>
<rect x="-17.1934" y="-50.1754" width="417.544" height="609.825" rx="8.42105" fill="#FAFAF8"/>
<g clip-path="url(#clip1_0_1)">
<g filter="url(#filter0_d_0_1)">
<path fill-rule="evenodd" clip-rule="evenodd" d="M2.92398 2.33918C2.92398 1.71879 3.17043 1.12381 3.60911 0.68513C4.04779 0.246449 4.64277 0 5.26316 0C5.88355 0 6.47853 0.246449 6.91721 0.68513C7.35589 1.12381 7.60234 1.71879 7.60234 2.33918C7.60234 2.95957 7.35589 3.55455 6.91721 3.99323C6.47853 4.43191 5.88355 4.67836 5.26316 4.67836C4.64277 4.67836 4.04779 4.43191 3.60911 3.99323C3.17043 3.55455 2.92398 2.95957 2.92398 2.33918ZM2.92398 5.84795C2.14849 5.84795 1.40476 6.15601 0.856413 6.70437C0.308061 7.25272 0 7.99644 0 8.77193C0 9.23722 0.184837 9.68346 0.513848 10.0125C0.842859 10.3415 1.28909 10.5263 1.75439 10.5263H8.77193C9.23722 10.5263 9.68346 10.3415 10.0125 10.0125C10.3415 9.68346 10.5263 9.23722 10.5263 8.77193C10.5263 7.99644 10.2183 7.25272 9.6699 6.70437C9.12155 6.15601 8.37783 5.84795 7.60234 5.84795H2.92398Z" fill="black"/>
</g>
</g>
</g>
<defs>
<filter id="filter0_d_0_1" x="-18.5968" y="-13.6842" width="168.421" height="43.5088" filterUnits="userSpaceOnUse" color-interpolation-filters="sRGB">
<feFlood flood-opacity="0" result="BackgroundImageFix"/>
<feColorMatrix in="SourceAlpha" type="matrix" values="0 0 0 0 0 0 0 0 0 0 0 0 0 0 0 0 0 0 127 0" result="hardAlpha"/>
<feOffset dy="2.80702"/>
<feGaussianBlur stdDeviation="4.21053"/>
<feComposite in2="hardAlpha" operator="out"/>
<feColorMatrix type="matrix" values="0 0 0 0 0 0 0 0 0 0 0 0 0 0 0 0 0 0 0.06 0"/>
<feBlend mode="normal" in2="BackgroundImageFix" result="effect1_dropShadow_0_1"/>
<feBlend mode="normal" in="SourceGraphic" in2="effect1_dropShadow_0_1" result="shape"/>
</filter>
<clipPath id="clip0_0_1">
<rect width="1200" height="665.263" fill="white" transform="translate(-24.9126 -100.702)"/>
</clipPath>
<clipPath id="clip1_0_1">
<path d="M-17.1934 0.350925C-17.1934 -4.29989 -13.4231 -8.07018 -8.77231 -8.07018H151.228V559.649H-8.7723C-13.4231 559.649 -17.1934 555.879 -17.1934 551.228V0.350925Z" fill="white"/>
</clipPath>
</defs>
</svg>
