<svg width="11" height="11" viewBox="0 0 11 11" fill="none" xmlns="http://www.w3.org/2000/svg">
<path fill-rule="evenodd" clip-rule="evenodd" d="M3.50877 1.16959C3.50877 0.523644 4.03242 0 4.67836 0H5.84795C6.4939 0 7.01754 0.523644 7.01754 1.16959V2.33918C7.01754 2.86477 6.67085 3.3094 6.19368 3.45683C6.00853 3.51404 5.84795 3.66586 5.84795 3.85965V4.32749C5.84795 4.52127 6.00505 4.67836 6.19883 4.67836H8.18713C8.83308 4.67836 9.35672 5.20201 9.35672 5.84795V7.01754C10.0027 7.01754 10.5263 7.54119 10.5263 8.18713V9.35672C10.5263 10.0027 10.0027 10.5263 9.35672 10.5263H8.18713C7.54119 10.5263 7.01754 10.0027 7.01754 9.35672V8.18713C7.01754 7.54119 7.54119 7.01754 8.18713 7.01754V6.19883C8.18713 6.00505 8.03004 5.84795 7.83626 5.84795H2.69006C2.49627 5.84795 2.33918 6.00505 2.33918 6.19883V7.01754C2.98513 7.01754 3.50877 7.54119 3.50877 8.18713V9.35672C3.50877 10.0027 2.98513 10.5263 2.33918 10.5263H1.16959C0.523644 10.5263 0 10.0027 0 9.35672V8.18713C0 7.54119 0.523644 7.01754 1.16959 7.01754V5.84795C1.16959 5.20201 1.69323 4.67836 2.33918 4.67836H4.32749C4.52127 4.67836 4.67836 4.52127 4.67836 4.32749V3.85965C4.67836 3.66586 4.51778 3.51404 4.33264 3.45683C3.85546 3.3094 3.50877 2.86478 3.50877 2.33918V1.16959ZM5.84795 1.52047C5.84795 1.32668 5.69086 1.16959 5.49708 1.16959H5.02924C4.83546 1.16959 4.67836 1.32668 4.67836 1.52047V1.9883C4.67836 2.18209 4.83546 2.33918 5.02924 2.33918H5.49708C5.69086 2.33918 5.84795 2.18209 5.84795 1.9883V1.52047ZM1.52047 8.18713C1.32668 8.18713 1.16959 8.34423 1.16959 8.53801V9.00585C1.16959 9.19963 1.32668 9.35672 1.52047 9.35672H1.9883C2.18209 9.35672 2.33918 9.19963 2.33918 9.00585V8.53801C2.33918 8.34423 2.18209 8.18713 1.9883 8.18713H1.52047ZM8.53801 8.18713C8.34423 8.18713 8.18713 8.34423 8.18713 8.53801V9.00585C8.18713 9.19963 8.34423 9.35672 8.53801 9.35672H9.00585C9.19963 9.35672 9.35672 9.19963 9.35672 9.00585V8.53801C9.35672 8.34423 9.19963 8.18713 9.00585 8.18713H8.53801Z" fill="#90909B"/>
</svg>
